<?xml version="1.0" encoding="UTF-8" standalone="no"?>
<!-- Generator: Adobe Illustrator 17.1.0, SVG Export Plug-In . SVG Version: 6.00 Build 0)  -->

<svg
   xmlns:dc="http://purl.org/dc/elements/1.1/"
   xmlns:cc="http://creativecommons.org/ns#"
   xmlns:rdf="http://www.w3.org/1999/02/22-rdf-syntax-ns#"
   xmlns:svg="http://www.w3.org/2000/svg"
   xmlns="http://www.w3.org/2000/svg"
   xmlns:sodipodi="http://sodipodi.sourceforge.net/DTD/sodipodi-0.dtd"
   xmlns:inkscape="http://www.inkscape.org/namespaces/inkscape"
   version="1.1"
   id="Capa_1"
   x="0px"
   y="0px"
   viewBox="0 0 203.5275 250.235"
   xml:space="preserve"
   inkscape:version="0.91 r13725"
   sodipodi:docname="car-seat.svg"
   width="203.5275"
   height="250.235"><metadata
     id="metadata39"><rdf:RDF><cc:Work
         rdf:about=""><dc:format>image/svg+xml</dc:format><dc:type
           rdf:resource="http://purl.org/dc/dcmitype/StillImage" /><dc:title></dc:title></cc:Work></rdf:RDF></metadata><defs
     id="defs37" /><sodipodi:namedview
     pagecolor="#ffffff"
     bordercolor="#666666"
     borderopacity="1"
     objecttolerance="10"
     gridtolerance="10"
     guidetolerance="10"
     inkscape:pageopacity="0"
     inkscape:pageshadow="2"
     inkscape:window-width="1122"
     inkscape:window-height="722"
     id="namedview35"
     showgrid="false"
     inkscape:zoom="0.98237143"
     inkscape:cx="-45.837725"
     inkscape:cy="125.1175"
     inkscape:window-x="0"
     inkscape:window-y="27"
     inkscape:window-maximized="0"
     inkscape:current-layer="Capa_1"
     fit-margin-top="5"
     fit-margin-left="5"
     fit-margin-right="5"
     fit-margin-bottom="5" /><path
     d="m 10.136703,11.089 c 3.663,-3.926 8.714,-6.089 14.224,-6.089 l 15.143,0 c 11.16,0 21.811,8.942 23.74,19.934 l 0.955,5.436 c 0.96,5.47 -0.332,10.651 -3.639,14.589 -3.307,3.938 -8.186,6.106 -13.74,6.106 l -19.561,0 c -2.714,0 -5.339,-0.542 -7.778,-1.504 l 2.079,17.761 c 2.001,-0.841 4.198,-1.289 6.507,-1.289 l 22.318,0 c 9.561,0 18.952,7.609 20.936,16.961 l 19.732004,93.027 93.099003,-6.69 c 5.031,-0.36 9.231,1.345 11.835,4.693 2.439,3.136 3.152,7.343 2.009,11.847 l -10.824,42.618 c -2.345,9.233 -12.004,16.746 -21.53,16.746 l -78.049003,0 -1.191,0 -39.729004,0 c -9.653,0 -18.336,-7.811 -19.354,-17.411 l -15.272,-143.981 c -0.087,-0.823 -0.097,-1.634 -0.069,-2.437 L 6.7507033,36.758 c -0.738,-1.923 -1.207,-3.967 -1.354,-6.087 l -0.346,-4.97 c -0.384,-5.496 1.423,-10.685 5.0859997,-14.612 z"
     id="path3"
     inkscape:connector-curvature="0" /><g
     id="g5"
     transform="matrix(-1,0,0,1,221.88071,5)" /><g
     id="g7"
     transform="matrix(-1,0,0,1,221.88071,5)" /><g
     id="g9"
     transform="matrix(-1,0,0,1,221.88071,5)" /><g
     id="g11"
     transform="matrix(-1,0,0,1,221.88071,5)" /><g
     id="g13"
     transform="matrix(-1,0,0,1,221.88071,5)" /><g
     id="g15"
     transform="matrix(-1,0,0,1,221.88071,5)" /><g
     id="g17"
     transform="matrix(-1,0,0,1,221.88071,5)" /><g
     id="g19"
     transform="matrix(-1,0,0,1,221.88071,5)" /><g
     id="g21"
     transform="matrix(-1,0,0,1,221.88071,5)" /><g
     id="g23"
     transform="matrix(-1,0,0,1,221.88071,5)" /><g
     id="g25"
     transform="matrix(-1,0,0,1,221.88071,5)" /><g
     id="g27"
     transform="matrix(-1,0,0,1,221.88071,5)" /><g
     id="g29"
     transform="matrix(-1,0,0,1,221.88071,5)" /><g
     id="g31"
     transform="matrix(-1,0,0,1,221.88071,5)" /><g
     id="g33"
     transform="matrix(-1,0,0,1,221.88071,5)" /></svg>