<?xml version="1.0" encoding="UTF-8" standalone="no"?>
<!-- Created with Inkscape (http://www.inkscape.org/) -->

<svg
   xmlns:dc="http://purl.org/dc/elements/1.1/"
   xmlns:cc="http://creativecommons.org/ns#"
   xmlns:rdf="http://www.w3.org/1999/02/22-rdf-syntax-ns#"
   xmlns:svg="http://www.w3.org/2000/svg"
   xmlns="http://www.w3.org/2000/svg"
   xmlns:sodipodi="http://sodipodi.sourceforge.net/DTD/sodipodi-0.dtd"
   xmlns:inkscape="http://www.inkscape.org/namespaces/inkscape"
   width="93.566277mm"
   height="58.396255mm"
   viewBox="0 0 331.53405 206.91587"
   id="svg4779"
   version="1.1"
   inkscape:version="0.91 r13725"
   sodipodi:docname="mirish.svg">
  <defs
     id="defs4781" />
  <sodipodi:namedview
     id="base"
     pagecolor="#ffffff"
     bordercolor="#666666"
     borderopacity="1.0"
     inkscape:pageopacity="0.0"
     inkscape:pageshadow="2"
     inkscape:zoom="1.0652581"
     inkscape:cx="60.34247"
     inkscape:cy="2.2801618"
     inkscape:document-units="px"
     inkscape:current-layer="layer1"
     showgrid="false"
     fit-margin-top="5"
     fit-margin-left="5"
     fit-margin-right="5"
     fit-margin-bottom="5"
     showborder="false"
     inkscape:window-width="1680"
     inkscape:window-height="986"
     inkscape:window-x="0"
     inkscape:window-y="27"
     inkscape:window-maximized="1" />
  <metadata
     id="metadata4784">
    <rdf:RDF>
      <cc:Work
         rdf:about="">
        <dc:format>image/svg+xml</dc:format>
        <dc:type
           rdf:resource="http://purl.org/dc/dcmitype/StillImage" />
        <dc:title></dc:title>
      </cc:Work>
    </rdf:RDF>
  </metadata>
  <g
     inkscape:label="Layer 1"
     inkscape:groupmode="layer"
     id="layer1"
     transform="translate(-191.22433,-124.56368)">
    <path
       inkscape:connector-curvature="0"
       style="fill:currentColor"
       d="m 400.4839,162.61355 -10.86926,0 -3.02095,-7.55238 c -3.10446,-7.76479 -10.51342,-12.78095 -18.87732,-12.78095 l -23.05655,0 c -8.36208,0 -15.77285,5.01616 -18.87913,12.78095 l -3.02096,7.55238 -10.86744,0 c -1.41788,0 -2.45815,1.33256 -2.11321,2.70688 l 1.08929,4.35714 c 0.24145,0.96947 1.11288,1.65027 2.11321,1.65027 l 3.64366,0 c -2.43818,2.12955 -4.00857,5.22494 -4.00857,8.71428 l 0,8.71429 c 0,2.92655 1.11833,5.56807 2.90476,7.61229 l 0,9.81628 c 0,3.20795 2.60158,5.80953 5.80952,5.80953 l 5.80953,0 c 3.20794,0 5.80952,-2.60158 5.80952,-5.80953 l 0,-5.80952 46.47619,0 0,5.80952 c 0,3.20795 2.60158,5.80953 5.80953,5.80953 l 5.80952,0 c 3.20795,0 5.80952,-2.60158 5.80952,-5.80953 l 0,-9.81628 c 1.78643,-2.04241 2.90477,-4.68393 2.90477,-7.61229 l 0,-8.71429 c 0,-3.48934 -1.57039,-6.58473 -4.00676,-8.71428 l 3.64366,0 c 1.00033,0 1.87176,-0.6808 2.11321,-1.65027 l 1.08929,-4.35714 c 0.34313,-1.37432 -0.69714,-2.70688 -2.11503,-2.70688 z m -63.91565,-3.23699 c 1.32348,-3.3078 4.52779,-5.47729 8.09157,-5.47729 l 23.05655,0 c 3.56378,0 6.7681,2.16949 8.09158,5.47729 l 3.61824,9.04652 -46.47619,0 3.61825,-9.04652 z m -9.42777,29.34354 c -3.48572,0 -5.80953,-2.31655 -5.80953,-5.79137 0,-3.47482 2.32381,-5.79137 5.80953,-5.79137 3.48571,0 8.71428,5.21224 8.71428,8.68706 0,3.47482 -5.22857,2.89568 -8.71428,2.89568 z m 58.09524,0 c -3.48572,0 -8.71429,0.57914 -8.71429,-2.89568 0,-3.47482 5.22857,-8.68706 8.71429,-8.68706 3.48571,0 5.80952,2.31655 5.80952,5.79137 0,3.47482 -2.32381,5.79137 -5.80952,5.79137 z"
       id="path4" />
    <path
       inkscape:connector-curvature="0"
       style="fill:currentColor"
       d="m 252.65516,153.57044 c -24.14862,0 -43.71429,19.56567 -43.71429,43.71428 0,24.14862 19.56567,43.71429 43.71429,43.71429 24.14861,0 43.71428,-19.56567 43.71428,-43.71429 0,-24.14861 -19.56567,-43.71428 -43.71428,-43.71428 z m 0,78.96774 c -19.44229,0 -35.25346,-15.81117 -35.25346,-35.25346 0,-19.44228 15.81117,-35.25345 35.25346,-35.25345 19.44228,0 35.25345,15.81117 35.25345,35.25345 0,19.44229 -15.81117,35.25346 -35.25345,35.25346 z m -14.10139,-38.07373 c 3.11993,0 5.64056,-2.52062 5.64056,-5.64055 0,-3.11994 -2.52063,-5.64056 -5.64056,-5.64056 -3.11993,0 -5.64055,2.52062 -5.64055,5.64056 0,3.11993 2.52062,5.64055 5.64055,5.64055 z m 28.20277,0 c 3.11993,0 5.64055,-2.52062 5.64055,-5.64055 0,-3.11994 -2.52062,-5.64056 -5.64055,-5.64056 -3.11993,0 -5.64055,2.52062 -5.64055,5.64056 0,3.11993 2.52062,5.64055 5.64055,5.64055 z m 0.70507,12.797 c -3.66636,4.40669 -9.07777,6.94493 -14.80645,6.94493 -5.72869,0 -11.1401,-2.52062 -14.80646,-6.94493 -1.49827,-1.79792 -4.17753,-2.02707 -5.95783,-0.54643 -1.79793,1.49828 -2.02707,4.15991 -0.54643,5.95784 5.28802,6.34562 13.06141,9.97673 21.31072,9.97673 8.2493,0 16.02269,-3.63111 21.31071,-9.97673 1.49827,-1.79793 1.2515,-4.45956 -0.54643,-5.95784 -1.7803,-1.48064 -4.45956,-1.25149 -5.95783,0.54643 z"
       id="path4231" />
    <path
       inkscape:connector-curvature="0"
       style="fill:currentColor"
       d="m 461.32758,153.57044 c -24.14862,0 -43.71429,19.56567 -43.71429,43.71428 0,24.14862 19.56567,43.71429 43.71429,43.71429 24.14861,0 43.71428,-19.56567 43.71428,-43.71429 0,-24.14861 -19.56567,-43.71428 -43.71428,-43.71428 z m 0,78.96774 c -19.44229,0 -35.25346,-15.81117 -35.25346,-35.25346 0,-19.44228 15.81117,-35.25345 35.25346,-35.25345 19.44228,0 35.25345,15.81117 35.25345,35.25345 0,19.44229 -15.81117,35.25346 -35.25345,35.25346 z m -14.10139,-38.07373 c 3.11993,0 5.64056,-2.52062 5.64056,-5.64055 0,-3.11994 -2.52063,-5.64056 -5.64056,-5.64056 -3.11993,0 -5.64055,2.52062 -5.64055,5.64056 0,3.11993 2.52062,5.64055 5.64055,5.64055 z m 28.20277,0 c 3.11993,0 5.64055,-2.52062 5.64055,-5.64055 0,-3.11994 -2.52062,-5.64056 -5.64055,-5.64056 -3.11993,0 -5.64055,2.52062 -5.64055,5.64056 0,3.11993 2.52062,5.64055 5.64055,5.64055 z m 0.70507,12.797 c -3.66636,4.40669 -9.07777,6.94493 -14.80645,6.94493 -5.72869,0 -11.1401,-2.52062 -14.80646,-6.94493 -1.49827,-1.79792 -4.17753,-2.02707 -5.95783,-0.54643 -1.79793,1.49828 -2.02707,4.15991 -0.54643,5.95784 5.28802,6.34562 13.06141,9.97673 21.31072,9.97673 8.2493,0 16.02269,-3.63111 21.31071,-9.97673 1.49827,-1.79793 1.2515,-4.45956 -0.54643,-5.95784 -1.7803,-1.48064 -4.45956,-1.25149 -5.95783,0.54643 z"
       id="path4231-3" />
    <g
       id="g4181">
      <path
         id="path4231-3-6"
         d="m 403.44798,226.33445 c -24.14862,0 -43.71429,19.56567 -43.71429,43.71427 0,24.14862 19.56567,43.71429 43.71429,43.71429 24.14861,0 43.71428,-19.56567 43.71428,-43.71429 0,-24.14861 -19.56567,-43.71428 -43.71428,-43.71428 z m 0,78.96773 c -19.44229,0 -35.25346,-15.81117 -35.25346,-35.25346 0,-19.44228 15.81117,-35.25345 35.25346,-35.25345 19.44228,0 35.25345,15.81117 35.25345,35.25345 0,19.44229 -15.81117,35.25346 -35.25345,35.25346 z m -14.10139,-38.07373 c 3.11993,0 5.64056,-2.52062 5.64056,-5.64055 0,-3.11994 -2.52063,-5.64056 -5.64056,-5.64056 -3.11993,0 -5.64055,2.52062 -5.64055,5.64056 0,3.11993 2.52062,5.64055 5.64055,5.64055 z m 28.20277,0 c 3.11993,0 5.64055,-2.52062 5.64055,-5.64055 0,-3.11994 -2.52062,-5.64056 -5.64055,-5.64056 -3.11993,0 -5.64055,2.52062 -5.64055,5.64056 0,3.11993 2.52062,5.64055 5.64055,5.64055 z m 0.70507,12.79701 c -3.66636,4.40669 -9.07777,6.94493 -14.80645,6.94493 -5.72869,0 -11.1401,-2.52062 -14.80646,-6.94493 -1.49827,-1.79792 -4.17753,-2.02707 -5.95783,-0.54643 -1.79793,1.49828 -2.02707,4.15991 -0.54643,5.95783 5.28802,6.34562 13.06141,9.97673 21.31072,9.97673 8.2493,0 16.02269,-3.63111 21.31071,-9.97673 1.49827,-1.79793 1.2515,-4.45956 -0.54643,-5.95783 -1.7803,-1.48064 -4.45956,-1.25149 -5.95783,0.54643 z"
         style="fill:currentColor"
         inkscape:connector-curvature="0" />
      <path
         id="path4231-36"
         d="m 308.92943,226.33444 c -24.14862,0 -43.71429,19.56567 -43.71429,43.71428 0,24.14862 19.56567,43.71429 43.71429,43.71429 24.14861,0 43.71428,-19.56567 43.71428,-43.71429 0,-24.14861 -19.56567,-43.71428 -43.71428,-43.71428 z m 0,78.96774 c -19.44229,0 -35.25346,-15.81117 -35.25346,-35.25346 0,-19.44228 15.81117,-35.25345 35.25346,-35.25345 19.44228,0 35.25345,15.81117 35.25345,35.25345 0,19.44229 -15.81117,35.25346 -35.25345,35.25346 z m -14.10139,-38.07373 c 3.11993,0 5.64056,-2.52062 5.64056,-5.64055 0,-3.11994 -2.52063,-5.64056 -5.64056,-5.64056 -3.11993,0 -5.64055,2.52062 -5.64055,5.64056 0,3.11993 2.52062,5.64055 5.64055,5.64055 z m 28.20277,0 c 3.11993,0 5.64055,-2.52062 5.64055,-5.64055 0,-3.11994 -2.52062,-5.64056 -5.64055,-5.64056 -3.11993,0 -5.64055,2.52062 -5.64055,5.64056 0,3.11993 2.52062,5.64055 5.64055,5.64055 z m 0.70507,12.79701 c -3.66636,4.40669 -9.07777,6.94493 -14.80645,6.94493 -5.72869,0 -11.1401,-2.52062 -14.80646,-6.94493 -1.49827,-1.79792 -4.17753,-2.02707 -5.95783,-0.54643 -1.79793,1.49828 -2.02707,4.15991 -0.54643,5.95783 5.28802,6.34562 13.06141,9.97673 21.31072,9.97673 8.2493,0 16.02269,-3.63111 21.31071,-9.97673 1.49827,-1.79793 1.2515,-4.45956 -0.54643,-5.95783 -1.7803,-1.48064 -4.45956,-1.25149 -5.95783,0.54643 z"
         style="fill:currentColor"
         inkscape:connector-curvature="0" />
    </g>
  </g>
</svg>
