<?xml version="1.0" standalone="no"?>
<!DOCTYPE svg PUBLIC "-//W3C//DTD SVG 20010904//EN"
 "http://www.w3.org/TR/2001/REC-SVG-20010904/DTD/svg10.dtd">
<svg version="1.0" xmlns="http://www.w3.org/2000/svg"
 width="1328.000000pt" height="1328.000000pt" viewBox="0 0 1328.000000 1328.000000"
 preserveAspectRatio="xMidYMid meet">
<metadata>
Created by potrace 1.11, written by Peter Selinger 2001-2013
</metadata>
<g transform="translate(0.000000,1328.000000) scale(0.100000,-0.100000)"
fill="#000000" stroke="none">
<path d="M6005 10058 c-111 -20 -271 -88 -344 -146 -45 -35 -171 -163 -171
-173 0 -4 -6 -14 -14 -21 -24 -25 -79 -138 -136 -283 -18 -44 -37 -91 -42
-105 -6 -14 -13 -34 -15 -44 -2 -11 -6 -22 -9 -25 -2 -3 -110 -5 -239 -6
l-235 0 -26 -27 c-20 -20 -26 -35 -26 -66 0 -23 5 -49 10 -59 6 -10 13 -34 16
-53 9 -49 10 -51 24 -86 19 -45 51 -58 138 -57 41 0 74 -2 74 -6 0 -3 -14 -22
-31 -41 -17 -19 -42 -54 -56 -78 -51 -86 -56 -119 -58 -386 -2 -212 0 -256 15
-306 18 -60 79 -180 91 -180 4 0 7 -92 7 -204 0 -112 3 -221 7 -242 12 -74
103 -171 166 -178 14 -1 29 -4 34 -7 21 -10 273 -2 323 10 38 10 64 25 97 56
54 53 73 111 70 213 -1 45 3 72 9 72 7 0 8 3 1 8 -10 7 -15 101 -5 103 7 1
1821 1 1841 0 14 -1 16 -18 17 -125 0 -172 7 -199 71 -268 29 -32 63 -51 121
-66 29 -7 302 -7 307 1 2 4 8 5 13 2 14 -9 74 22 111 57 68 64 73 86 75 341 2
212 4 230 22 250 29 32 67 114 82 177 9 37 13 126 12 275 -1 209 -3 236 -16
295 -11 46 -65 145 -100 183 -20 20 -36 38 -36 40 0 2 26 3 58 2 75 -1 132 12
148 33 21 28 66 226 58 256 -14 56 -35 61 -285 61 -126 1 -230 3 -232 5 -2 3
-16 37 -32 75 -89 223 -110 270 -148 337 -34 60 -114 161 -142 180 -5 3 -28
23 -50 42 -60 54 -242 143 -302 148 -1 0 -28 7 -60 14 -45 11 -179 13 -608 13
-302 -1 -572 -6 -600 -11z m1140 -462 c87 -20 187 -95 229 -171 21 -40 156
-376 156 -390 0 -9 -246 -12 -925 -11 -509 0 -925 1 -925 3 0 13 147 368 167
403 48 83 127 142 218 163 58 13 1022 16 1080 3z m-1559 -977 c56 -38 123
-106 157 -156 15 -24 27 -45 27 -47 0 -3 5 -17 11 -33 16 -38 11 -94 -9 -117
-41 -45 -87 -56 -243 -56 -169 -1 -225 18 -275 95 -42 65 -52 162 -24 235 1 3
2 8 1 12 -1 13 89 99 99 93 5 -3 10 -2 10 4 0 5 24 13 53 18 64 11 132 -6 193
-48z m2292 30 c54 -23 97 -74 113 -133 13 -49 17 -106 7 -106 -4 0 -5 -6 -2
-14 8 -21 -30 -97 -65 -130 -17 -17 -31 -27 -31 -23 0 4 -12 -1 -27 -10 -22
-15 -53 -19 -168 -21 -152 -3 -205 6 -251 43 -25 20 -29 29 -27 74 2 77 30
126 128 225 108 110 217 142 323 95z"/>
<path d="M2348 9615 c-2 -2 -28 -5 -58 -8 -91 -9 -195 -23 -195 -27 0 -1 -7
-3 -15 -5 -8 -2 -28 -6 -45 -10 -16 -3 -34 -7 -40 -8 -5 -2 -14 -5 -20 -9 -5
-3 -25 -9 -43 -13 -144 -31 -457 -205 -612 -340 -78 -68 -196 -196 -260 -281
-58 -77 -180 -274 -180 -290 0 -3 -11 -30 -25 -59 -26 -58 -82 -219 -89 -257
-3 -13 -5 -24 -7 -25 -2 -4 -4 -12 -13 -63 -5 -25 -10 -54 -12 -65 -27 -137
-26 -476 2 -598 3 -12 8 -37 11 -56 3 -19 11 -52 19 -73 7 -21 11 -38 7 -38
-3 0 0 -7 7 -15 7 -9 10 -18 7 -21 -3 -3 3 -24 13 -47 10 -23 16 -45 14 -49
-3 -4 0 -8 5 -8 6 0 11 -7 11 -16 0 -21 96 -220 132 -271 16 -24 25 -43 21
-43 -4 0 -3 -4 2 -8 6 -4 37 -43 70 -87 53 -71 117 -146 166 -194 57 -57 129
-121 159 -141 19 -13 37 -27 40 -30 3 -4 39 -29 80 -57 178 -120 438 -224 640
-258 19 -3 42 -8 50 -10 54 -14 381 -27 405 -16 5 3 33 6 62 8 28 2 96 13 150
24 54 11 103 21 108 23 6 1 16 5 23 9 6 5 12 6 12 3 0 -3 16 2 35 10 19 8 35
11 35 8 0 -4 6 -2 13 3 6 5 35 18 62 28 45 16 183 82 245 116 146 82 335 242
455 384 22 26 46 53 53 61 6 7 12 16 12 21 0 4 14 22 30 40 17 18 30 34 30 36
0 3 18 35 40 71 60 99 147 284 156 331 1 6 11 39 23 75 23 71 23 72 48 205 18
98 24 429 10 520 -5 28 -10 64 -12 80 -5 36 -9 52 -30 130 -9 33 -17 65 -19
70 -6 28 -41 125 -58 165 -104 236 -218 402 -401 583 -60 59 -113 107 -117
107 -4 0 -20 11 -36 25 -39 35 -191 135 -204 135 -5 0 -10 5 -10 10 0 6 -6 10
-12 10 -7 0 -48 18 -90 40 -43 22 -78 37 -78 33 0 -3 -6 -1 -12 4 -12 10 -164
63 -191 67 -7 1 -16 4 -22 7 -9 6 -44 13 -115 25 -14 3 -37 7 -52 10 -15 3
-42 7 -60 10 -37 5 -325 13 -330 9z m332 -354 c202 -35 394 -110 555 -216 33
-22 69 -48 79 -57 11 -10 23 -18 27 -18 8 0 160 -150 202 -199 86 -100 210
-314 238 -411 7 -25 16 -50 21 -56 5 -7 10 -20 13 -30 2 -11 9 -41 15 -69 21
-90 25 -111 35 -210 4 -33 5 -126 4 -240 0 -11 -4 -42 -9 -70 -5 -27 -11 -63
-14 -80 -38 -236 -183 -523 -354 -700 -98 -102 -262 -235 -290 -235 -6 0 -12
-4 -14 -9 -9 -24 -244 -126 -362 -157 -98 -26 -130 -32 -221 -40 -363 -36
-727 68 -1009 289 -125 98 -225 206 -310 336 -112 169 -187 357 -218 545 -13
78 -19 364 -8 413 5 21 11 56 14 78 18 135 114 374 207 513 89 134 230 286
324 350 22 15 42 29 45 32 6 6 53 38 95 62 45 27 204 103 240 114 187 59 323
81 494 78 75 -1 165 -7 201 -13z"/>
<path d="M1818 8416 c-55 -20 -93 -55 -123 -114 -77 -156 51 -338 224 -319 58
7 80 15 111 44 14 13 28 23 32 23 16 0 56 108 57 153 4 155 -153 266 -301 213z"/>
<path d="M2958 8421 c-46 -15 -82 -41 -112 -82 -36 -47 -41 -65 -40 -147 1
-53 6 -70 30 -105 48 -68 103 -100 176 -103 203 -9 314 220 181 372 -49 56
-163 88 -235 65z"/>
<path d="M1684 7519 c-35 -10 -79 -50 -101 -93 -18 -34 -13 -124 9 -154 42
-61 184 -194 235 -220 12 -7 27 -18 35 -25 18 -17 122 -71 188 -97 132 -53
233 -72 393 -75 135 -2 224 10 342 47 39 12 72 22 75 23 3 0 14 6 25 12 11 6
23 11 28 12 20 2 120 59 190 108 94 66 214 185 234 232 50 117 -41 246 -166
236 -53 -4 -79 -21 -160 -102 -35 -35 -83 -77 -105 -92 -70 -48 -189 -103
-251 -117 -11 -2 -33 -7 -50 -11 -41 -10 -230 -10 -288 0 -54 9 -179 52 -217
75 -96 59 -136 90 -192 148 -86 90 -144 114 -224 93z"/>
<path d="M10688 9615 c-2 -1 -30 -5 -63 -9 -191 -20 -371 -71 -559 -160 -83
-39 -240 -132 -272 -161 -7 -5 -24 -19 -40 -30 -101 -72 -256 -230 -339 -345
-22 -30 -45 -61 -52 -68 -7 -7 -13 -17 -13 -22 0 -5 -6 -15 -12 -22 -7 -7 -20
-26 -28 -43 -8 -16 -17 -32 -20 -35 -14 -13 -84 -169 -116 -257 -45 -123 -74
-243 -89 -363 -3 -25 -7 -63 -10 -85 -6 -49 -6 -245 0 -300 2 -22 7 -62 11
-90 4 -27 8 -60 9 -72 2 -11 6 -31 10 -43 4 -12 8 -32 10 -43 5 -32 34 -139
44 -162 5 -11 19 -47 32 -80 41 -109 151 -314 194 -361 5 -7 19 -24 30 -40
174 -243 440 -452 731 -574 108 -45 260 -91 348 -104 21 -4 48 -9 60 -11 69
-17 319 -22 446 -11 108 10 278 49 400 91 105 37 272 113 278 128 2 4 8 7 13
7 13 0 105 61 194 129 218 167 406 401 518 641 36 77 94 232 102 270 2 8 10
42 18 75 8 33 18 80 22 105 4 25 10 54 12 65 10 36 11 405 3 438 -5 18 -11 50
-14 72 -18 140 -85 358 -146 476 -4 8 -20 40 -36 70 -150 293 -445 581 -749
733 -103 52 -201 94 -235 101 -8 2 -28 8 -45 15 -32 12 -146 41 -182 45 -12 2
-34 6 -50 9 -73 15 -109 18 -255 20 -87 2 -159 2 -160 1z m317 -349 c22 -3 51
-8 65 -11 14 -3 34 -7 45 -9 115 -22 285 -87 387 -147 36 -21 69 -39 73 -39 4
0 13 -6 20 -12 25 -22 39 -33 86 -65 94 -65 268 -257 338 -374 58 -96 145
-291 156 -349 2 -8 8 -34 14 -57 28 -105 38 -204 36 -353 -3 -160 -7 -194 -31
-295 -8 -33 -17 -71 -20 -84 -8 -36 -65 -181 -86 -219 -10 -18 -18 -39 -18
-47 0 -8 -4 -15 -9 -15 -5 0 -16 -15 -25 -34 -23 -48 -121 -183 -169 -234 -92
-96 -173 -168 -209 -188 -16 -8 -28 -19 -28 -24 0 -6 -5 -10 -11 -10 -6 0 -29
-13 -52 -29 -92 -63 -301 -152 -412 -176 -239 -51 -472 -50 -685 5 -117 30
-186 57 -302 117 -163 85 -344 231 -436 353 -15 19 -29 37 -32 40 -20 18 -90
127 -123 190 -47 90 -98 210 -90 210 3 0 1 6 -4 13 -9 10 -27 73 -38 133 -2
11 -4 20 -5 22 -4 4 -6 14 -14 72 -5 30 -10 64 -12 75 -10 53 -3 278 11 355 3
19 8 46 10 60 2 14 11 52 20 85 9 33 18 67 20 75 9 37 58 148 100 228 117 219
298 412 506 540 77 47 193 102 264 127 28 9 57 19 65 22 8 4 19 5 23 4 4 0 16
3 27 9 19 10 41 15 175 34 79 12 293 13 370 2z"/>
<path d="M10186 8418 c-9 -5 -16 -6 -16 -2 0 8 -70 -44 -88 -66 -49 -57 -66
-163 -37 -220 9 -17 16 -33 16 -37 1 -16 60 -73 92 -89 39 -21 135 -27 179
-11 44 16 105 73 126 116 22 46 22 156 0 196 -42 78 -125 127 -207 124 -28 -2
-57 -6 -65 -11z"/>
<path d="M11292 8410 c-111 -51 -163 -187 -113 -295 21 -46 53 -85 70 -85 6 0
11 -4 11 -9 0 -19 78 -40 140 -36 49 2 71 9 103 32 67 46 98 100 102 172 5 86
-19 140 -90 199 -52 44 -153 53 -223 22z"/>
<path d="M10033 7515 c-88 -37 -131 -150 -88 -231 14 -28 99 -119 155 -169 59
-52 253 -172 290 -180 3 -1 43 -14 90 -29 122 -40 227 -54 365 -51 121 4 157
8 230 27 22 5 47 11 55 13 35 7 157 58 218 91 123 65 296 213 340 288 46 79
13 194 -65 231 -86 41 -154 22 -235 -63 -116 -123 -256 -203 -413 -238 -50
-11 -274 -14 -280 -3 -4 5 -10 7 -15 4 -23 -14 -277 89 -288 117 -2 4 -8 8
-14 8 -6 0 -21 11 -34 26 -13 14 -24 22 -24 18 0 -4 -26 21 -57 54 -32 33 -70
68 -86 77 -35 22 -104 27 -144 10z"/>
<path d="M4707 6704 c-1 -1 -51 -4 -112 -8 -60 -3 -121 -8 -135 -11 -14 -3
-38 -7 -55 -10 -83 -12 -254 -61 -322 -91 -17 -8 -34 -14 -38 -14 -15 0 -164
-77 -240 -124 -175 -108 -347 -262 -473 -421 -4 -5 -18 -26 -32 -45 -13 -19
-27 -37 -30 -40 -11 -9 -70 -110 -70 -119 0 -5 -4 -11 -8 -13 -16 -6 -122
-235 -138 -298 -2 -8 -13 -46 -24 -85 -32 -110 -34 -120 -59 -316 -19 -143 -2
-380 39 -557 51 -216 175 -490 284 -623 12 -14 32 -41 46 -60 14 -19 41 -51
61 -71 20 -21 35 -38 32 -38 -3 0 13 -17 35 -37 106 -102 141 -133 147 -133 3
0 16 -9 28 -21 79 -74 347 -223 477 -264 30 -10 60 -22 66 -27 7 -5 16 -8 20
-7 5 2 29 -3 54 -10 62 -18 81 -22 110 -26 14 -2 52 -9 85 -15 49 -8 218 -22
260 -21 53 1 196 10 220 14 17 3 50 9 75 12 58 9 174 38 235 59 6 1 24 6 40
11 17 4 35 10 40 14 6 3 12 6 15 7 17 3 183 79 219 100 45 25 185 116 191 124
3 3 20 17 39 30 18 12 56 44 84 69 46 42 72 68 156 156 41 43 151 191 151 203
0 6 4 12 8 14 5 2 24 30 43 63 269 467 308 1047 103 1543 -40 96 -120 249
-140 270 -8 7 -14 17 -14 22 0 5 -6 15 -13 22 -7 7 -24 29 -37 48 -123 176
-338 370 -540 489 -40 24 -192 96 -230 110 -19 7 -44 17 -55 21 -34 13 -78 28
-110 36 -16 4 -34 9 -40 10 -5 2 -40 10 -78 18 -70 14 -75 15 -79 17 -18 7
-284 28 -291 23z m123 -348 c117 -8 244 -35 365 -78 60 -21 231 -104 249 -120
11 -10 25 -18 30 -18 6 0 23 -11 38 -25 15 -14 32 -25 38 -25 5 0 10 -3 10 -8
0 -4 11 -14 24 -22 49 -31 188 -169 255 -256 122 -156 230 -403 265 -605 32
-184 26 -411 -15 -564 -6 -22 -13 -51 -15 -65 -3 -14 -11 -41 -18 -60 -19 -47
-29 -73 -31 -85 -5 -20 -85 -177 -105 -205 -11 -15 -20 -31 -20 -34 0 -4 -5
-12 -10 -19 -6 -7 -28 -36 -50 -65 -55 -74 -112 -135 -192 -207 -144 -128
-298 -217 -493 -283 -92 -32 -101 -34 -240 -57 -95 -16 -352 -14 -440 4 -179
37 -378 111 -482 181 -22 15 -51 31 -62 35 -12 3 -21 10 -21 14 0 5 -19 21
-42 36 -38 25 -73 55 -142 121 -28 27 -104 114 -136 154 -59 75 -160 252 -159
277 1 3 -3 9 -8 12 -7 5 -48 111 -58 151 -3 8 -11 40 -19 70 -45 170 -53 401
-20 590 17 100 82 305 108 339 6 7 11 20 12 28 3 19 79 145 129 213 202 275
484 464 815 545 78 19 117 24 230 31 47 3 87 8 89 10 3 2 12 2 20 0 9 -3 54
-8 101 -10z"/>
<path d="M4097 5508 c-168 -35 -228 -256 -103 -379 104 -103 294 -72 355 57 7
16 17 36 20 44 12 23 4 111 -13 151 -40 95 -151 150 -259 127z"/>
<path d="M5220 5507 c-155 -41 -217 -235 -112 -357 138 -162 395 -71 395 140
0 146 -141 255 -283 217z"/>
<path d="M3928 4603 c-10 -2 -18 -9 -18 -14 0 -5 -6 -9 -13 -9 -14 0 -39 -26
-57 -60 -18 -34 -19 -113 -1 -148 29 -55 154 -178 240 -235 25 -17 48 -33 51
-36 7 -8 148 -76 195 -94 65 -26 80 -30 190 -52 77 -16 301 -23 341 -12 11 4
37 9 60 12 49 7 155 37 206 59 21 9 41 17 45 17 15 2 133 69 175 99 99 70 220
186 246 237 56 105 -27 243 -146 243 -62 0 -86 -13 -165 -91 -39 -40 -97 -88
-127 -108 -30 -20 -56 -39 -58 -43 -2 -5 -9 -8 -16 -8 -7 0 -34 -11 -62 -23
-81 -39 -184 -60 -294 -61 -225 -1 -422 86 -579 256 -35 38 -66 61 -90 68 -36
10 -92 11 -123 3z"/>
<path d="M8468 6705 c-2 -2 -43 -6 -93 -9 -49 -4 -103 -9 -120 -11 -16 -3 -46
-7 -65 -10 -19 -2 -45 -7 -57 -10 -13 -3 -25 -6 -28 -6 -2 0 -19 -5 -37 -11
-18 -5 -40 -11 -48 -12 -39 -5 -235 -84 -320 -129 -52 -28 -107 -57 -122 -64
-16 -8 -28 -18 -28 -23 0 -4 -11 -11 -25 -14 -14 -4 -25 -10 -25 -15 0 -5 -17
-20 -37 -32 -21 -13 -45 -31 -54 -41 -9 -10 -19 -18 -22 -18 -4 0 -22 -15 -40
-32 -19 -18 -52 -49 -73 -69 -70 -65 -163 -179 -240 -294 -34 -50 -151 -260
-145 -260 2 0 -2 -11 -7 -25 -52 -137 -79 -231 -107 -366 -26 -125 -26 -513 0
-604 2 -8 7 -30 10 -49 22 -127 100 -342 177 -483 48 -89 121 -200 153 -232 8
-8 15 -19 15 -24 0 -19 279 -292 299 -292 5 0 11 -4 13 -9 6 -16 181 -128 268
-171 47 -23 93 -46 102 -51 10 -5 25 -9 33 -9 8 0 15 -4 15 -10 0 -5 3 -9 8
-8 4 1 45 -11 92 -26 47 -15 96 -30 110 -32 14 -3 39 -9 55 -14 58 -17 300
-45 370 -42 154 6 237 15 360 37 90 17 327 93 333 108 2 4 8 7 13 7 9 0 133
59 174 83 191 112 354 255 517 455 93 115 242 393 263 492 2 8 4 16 5 18 2 1
3 5 5 10 1 4 4 14 8 22 9 24 26 83 31 110 3 14 9 50 15 80 5 30 13 71 17 90 4
19 8 121 9 225 2 151 -1 212 -16 295 -21 117 -27 145 -29 145 -1 0 -4 11 -6
25 -25 138 -176 454 -278 582 -12 14 -32 41 -46 59 -14 19 -43 53 -66 76 -23
24 -39 43 -37 43 3 0 -19 21 -48 48 -29 26 -62 56 -73 67 -12 11 -46 38 -76
60 -30 22 -63 47 -72 55 -47 43 -286 167 -403 210 -67 25 -226 67 -281 75 -21
3 -50 8 -64 10 -14 3 -70 7 -125 11 -55 3 -112 7 -127 8 -15 2 -29 2 -30 1z
m137 -349 c126 -10 211 -23 238 -38 10 -5 21 -7 23 -5 3 3 35 -6 72 -20 37
-14 81 -30 97 -36 17 -6 64 -28 105 -50 41 -21 85 -44 97 -50 13 -7 23 -15 23
-19 0 -5 5 -8 11 -8 12 0 120 -80 160 -120 15 -14 37 -34 50 -46 67 -58 183
-204 231 -288 58 -103 133 -277 144 -331 1 -5 9 -37 17 -70 9 -33 19 -76 22
-95 11 -55 15 -371 5 -415 -4 -22 -11 -58 -14 -80 -2 -22 -9 -53 -15 -68 -6
-15 -8 -27 -6 -27 11 0 -59 -179 -111 -283 -128 -258 -360 -488 -624 -618 -36
-18 -67 -33 -70 -34 -3 -1 -18 -7 -33 -13 -16 -7 -35 -12 -43 -12 -8 0 -14 -4
-14 -9 0 -5 -12 -11 -27 -14 -52 -10 -82 -17 -108 -27 -13 -5 -47 -12 -73 -15
-27 -3 -62 -9 -78 -14 -89 -25 -447 0 -549 39 -14 5 -25 8 -25 6 0 -3 -24 5
-52 16 -29 10 -57 21 -63 22 -5 1 -37 15 -70 31 -33 15 -62 29 -65 30 -20 5
-175 99 -190 115 -3 3 -25 21 -50 40 -80 62 -199 187 -260 275 -19 27 -40 55
-45 61 -11 11 -121 228 -137 269 -17 44 -60 202 -64 240 -3 22 -9 57 -14 78
-9 41 -6 335 4 377 3 14 8 41 10 60 3 19 13 60 21 90 9 30 18 66 21 79 3 13
11 36 19 52 8 15 15 33 15 39 0 17 88 191 107 212 9 10 12 18 7 18 -5 0 -4 4
1 8 16 12 55 70 55 83 0 7 3 9 6 6 4 -3 20 13 37 36 67 94 295 295 377 331 14
6 27 14 30 17 7 9 130 66 206 95 60 22 151 48 209 58 17 3 41 8 55 11 14 3 68
8 120 12 52 3 96 7 98 8 2 2 11 1 20 -1 9 -1 49 -5 87 -8z"/>
<path d="M7873 5505 c-101 -30 -170 -129 -159 -229 6 -63 16 -96 27 -96 5 0 9
-5 9 -10 0 -18 43 -57 89 -81 127 -65 310 28 315 160 1 17 4 31 7 31 13 0 -14
95 -37 131 -52 83 -157 122 -251 94z"/>
<path d="M9003 5505 c-165 -49 -216 -264 -90 -379 71 -65 181 -79 260 -32 137
80 157 248 44 359 -27 26 -52 46 -55 43 -3 -3 -11 -1 -17 4 -19 16 -96 19
-142 5z"/>
<path d="M7703 4594 c-71 -31 -110 -128 -83 -209 15 -46 158 -191 247 -252
242 -164 549 -231 828 -179 11 2 38 7 60 11 45 8 185 58 231 83 18 9 49 26 70
36 22 11 41 23 44 26 3 4 25 20 50 35 57 36 202 180 224 224 22 42 23 109 1
150 -25 50 -85 88 -142 89 -66 2 -91 -12 -175 -94 -74 -72 -145 -125 -208
-156 -47 -23 -139 -58 -148 -56 -4 0 -14 -2 -22 -5 -57 -25 -283 -27 -350 -4
-16 5 -108 36 -125 41 -26 8 -52 21 -76 37 -14 10 -29 16 -33 12 -3 -3 -6 -1
-6 5 0 6 -15 19 -32 28 -18 9 -64 48 -101 86 -37 38 -82 78 -100 88 -38 23
-107 25 -154 4z"/>
</g>
</svg>
