<?xml version="1.0" encoding="UTF-8" standalone="no"?>
<!-- Generator: Adobe Illustrator 18.0.0, SVG Export Plug-In . SVG Version: 6.00 Build 0)  -->

<svg
   xmlns:dc="http://purl.org/dc/elements/1.1/"
   xmlns:cc="http://creativecommons.org/ns#"
   xmlns:rdf="http://www.w3.org/1999/02/22-rdf-syntax-ns#"
   xmlns:svg="http://www.w3.org/2000/svg"
   xmlns="http://www.w3.org/2000/svg"
   xmlns:sodipodi="http://sodipodi.sourceforge.net/DTD/sodipodi-0.dtd"
   xmlns:inkscape="http://www.inkscape.org/namespaces/inkscape"
   version="1.1"
   id="Capa_1"
   x="0px"
   y="0px"
   viewBox="0 0 227.3 227.3"
   xml:space="preserve"
   inkscape:version="0.91 r13725"
   sodipodi:docname="share.svg"
   width="227.3"
   height="227.3"><metadata
     id="metadata39"><rdf:RDF><cc:Work
         rdf:about=""><dc:format>image/svg+xml</dc:format><dc:type
           rdf:resource="http://purl.org/dc/dcmitype/StillImage" /><dc:title></dc:title></cc:Work></rdf:RDF></metadata><defs
     id="defs37" /><sodipodi:namedview
     pagecolor="#ffffff"
     bordercolor="#666666"
     borderopacity="0"
     objecttolerance="10"
     gridtolerance="10"
     guidetolerance="10"
     inkscape:pageopacity="0"
     inkscape:pageshadow="2"
     inkscape:window-width="1553"
     inkscape:window-height="825"
     id="namedview35"
     showgrid="false"
     fit-margin-top="0"
     fit-margin-left="0"
     fit-margin-right="0"
     fit-margin-bottom="0"
     inkscape:zoom="1.0386638"
     inkscape:cx="-34.788764"
     inkscape:cy="54.976472"
     inkscape:window-x="0"
     inkscape:window-y="27"
     inkscape:window-maximized="0"
     inkscape:current-layer="Capa_1"
     inkscape:showpageshadow="false"
     showborder="false" /><path
     d="m 167.441,141.561 c -13.249,0 -25.11,6.044 -32.98,15.518 L 83.267,128.013 c 1.592,-4.48 2.467,-9.297 2.467,-14.317 0,-5.019 -0.875,-9.836 -2.467,-14.315999 l 51.19,-29.073 c 7.869,9.477 19.732,15.523 32.982,15.523 23.634,0 42.862,-19.235 42.862,-42.879 0.002,-23.637 -19.226,-42.86600039 -42.86,-42.86600039 -23.637,0 -42.867,19.22900039 -42.867,42.86500039 0,5.02 0.874,9.838 2.467,14.319 l -51.193,29.074 c -7.869,-9.472 -19.729,-15.514 -32.975,-15.514 -23.64,0 -42.873,19.229 -42.873,42.865999 0,23.636 19.233,42.865 42.873,42.865 13.246,0 25.105,-6.042 32.974,-15.513 l 51.194,29.067 c -1.593,4.481 -2.468,9.3 -2.468,14.321 0,23.636 19.23,42.865 42.867,42.865 23.634,0 42.862,-19.23 42.862,-42.865 0.001,-23.64 -19.227,-42.874 -42.861,-42.874 z m 0,-126.475999 c 15.363,0 27.862,12.5 27.862,27.865 0,15.373 -12.499,27.879 -27.862,27.879 -15.366,0 -27.867,-12.506 -27.867,-27.879 0,-15.365 12.501,-27.865 27.867,-27.865 z M 42.874,141.561 c -15.369,0 -27.873,-12.501 -27.873,-27.865 0,-15.365999 12.504,-27.865999 27.873,-27.865999 15.363,0 27.861,12.5 27.861,27.865999 0,15.364 -12.499,27.865 -27.861,27.865 z m 124.567,70.74 c -15.366,0 -27.867,-12.501 -27.867,-27.865 0,-15.37 12.501,-27.875 27.867,-27.875 15.363,0 27.862,12.505 27.862,27.875 0,15.364 -12.499,27.865 -27.862,27.865 z"
     id="path3"
     inkscape:connector-curvature="0" /><g
     id="g5"
     transform="translate(-8.456,0.08500061)" /><g
     id="g7"
     transform="translate(-8.456,0.08500061)" /><g
     id="g9"
     transform="translate(-8.456,0.08500061)" /><g
     id="g11"
     transform="translate(-8.456,0.08500061)" /><g
     id="g13"
     transform="translate(-8.456,0.08500061)" /><g
     id="g15"
     transform="translate(-8.456,0.08500061)" /><g
     id="g17"
     transform="translate(-8.456,0.08500061)" /><g
     id="g19"
     transform="translate(-8.456,0.08500061)" /><g
     id="g21"
     transform="translate(-8.456,0.08500061)" /><g
     id="g23"
     transform="translate(-8.456,0.08500061)" /><g
     id="g25"
     transform="translate(-8.456,0.08500061)" /><g
     id="g27"
     transform="translate(-8.456,0.08500061)" /><g
     id="g29"
     transform="translate(-8.456,0.08500061)" /><g
     id="g31"
     transform="translate(-8.456,0.08500061)" /><g
     id="g33"
     transform="translate(-8.456,0.08500061)" /></svg>